# xmcd CD database file
#
# Track frame offsets:
#	150
#	24884
#	42313
#	57927
#	70426
#	84148
#	97948
#	121692
#	136838
#	153386
#	165049
#	174572
#	186130
#	199196
#	213064
#	223816
#	233184
#	245940
#	262888
#	277932
#	288838
#
# Disc length: 4184 seconds
#
# Revision: 1
# Processed by: cddbd v1.5.2PL0 Copyright (c) Steve Scherf et al.
# Submitted via: CDex 1.51
#
DISCID=18105615
DTITLE=Ike and Tina Turner - Mr. and Mrs. Soul
DYEAR=2002
DGENRE=Pop/Rock*
TTITLE0=Nutbush City Limits
TTITLE1=River Deep Mountain High
TTITLE2=Come Together
TTITLE3=I Want To Take You Highier
TTITLE4=I've Been Loving You So Long
TTITLE5=It's Gonna Work Out Fine
TTITLE6=A Fool For You
TTITLE7=Crazy 'bout My Baby
TTITLE8=I Can't Stop Loving You
TTITLE9=Somebody (Somewhere) Needs You
TTITLE10=To Hot To Hold
TTITLE11=Cussin' Cryin' And Carryin' On
TTITLE12=I Know (You Don't Want Me Anymore)
TTITLE13=It Sho' Ain't Me
TTITLE14=You Got What You Wanted
TTITLE15=Ain't Nobodys Business
TTITLE16=Betcha Can't Kiss Me
TTITLE17=I Smell Trouble
TTITLE18=It's All Over
TTITLE19=Nothing You Can Do Boy
TTITLE20=All I Could Do Was Cry
EXTD=YEAR: 2002
EXTT0=
EXTT1=
EXTT2=
EXTT3=
EXTT4=
EXTT5=
EXTT6=
EXTT7=
EXTT8=
EXTT9=
EXTT10=
EXTT11=
EXTT12=
EXTT13=
EXTT14=
EXTT15=
EXTT16=
EXTT17=
EXTT18=
EXTT19=
EXTT20=
PLAYORDER=
